HIERARCHY
ROOT Hips
{
  OFFSET 0.0000 0.0000 0.0000
  CHANNELS 6 Xposition Yposition Zposition Zrotation Xrotation Yrotation
  JOINT Chest
  {
    OFFSET -0.1728 10.2870 0.1254
    CHANNELS 3 Zrotation Xrotation Yrotation
    JOINT Chest2
    {
      OFFSET 0.3229 15.8173 -2.6440
      CHANNELS 3 Zrotation Xrotation Yrotation
      JOINT LeftCollar
      {
        OFFSET -0.0683 16.8828 0.2989
        CHANNELS 3 Zrotation Xrotation Yrotation
        JOINT LeftShoulder
        {
          OFFSET 16.0110 -3.0750 2.0528
          CHANNELS 3 Zrotation Xrotation Yrotation
          JOINT LeftElbow
          {
            OFFSET 2.6153 -25.4187 1.7231
            CHANNELS 3 Zrotation Xrotation Yrotation
            JOINT LeftWrist
            {
              OFFSET 2.3595 -22.4741 1.0488
              CHANNELS 3 Zrotation Xrotation Yrotation
              End Site
              {
                  OFFSET 1.4871 -13.9919 1.1523
              }
            }
          }
        }
      }
      JOINT RightCollar
      {
        OFFSET -0.0683 16.8828 0.2989
        CHANNELS 3 Zrotation Xrotation Yrotation
        JOINT RightShoulder
        {
          OFFSET -16.3743 -2.4390 2.0841
          CHANNELS 3 Zrotation Xrotation Yrotation
          JOINT RightElbow
          {
            OFFSET -2.6865 -25.0857 1.2959
            CHANNELS 3 Zrotation Xrotation Yrotation
            JOINT RightWrist
            {
              OFFSET -2.3810 -22.8348 1.0329
              CHANNELS 3 Zrotation Xrotation Yrotation
              End Site
              {
                  OFFSET -1.4652 -14.7234 1.0705
              }
            }
          }
        }
      }
      JOINT Neck
      {
        OFFSET -0.0683 16.8828 0.2989
        CHANNELS 3 Zrotation Xrotation Yrotation
        JOINT Head
        {
          OFFSET 0.1300 11.4121 4.7143
          CHANNELS 3 Zrotation Xrotation Yrotation
          End Site
          {
              OFFSET 0.0452 18.0438 0.3379
          }
        }
      }
    }
  }
  JOINT LeftHip
  {
    OFFSET 9.3186 -0.0408 3.5432
    CHANNELS 3 Zrotation Xrotation Yrotation
    JOINT LeftKnee
    {
      OFFSET -0.5435 -48.8357 0.3144
      CHANNELS 3 Zrotation Xrotation Yrotation
      JOINT LeftAnkle
      {
        OFFSET 0.2027 -38.4920 -4.2946
        CHANNELS 3 Zrotation Xrotation Yrotation
        End Site
        {
            OFFSET 1.1879 -7.4485 17.8063
        }
      }
    }
  }
  JOINT RightHip
  {
    OFFSET -10.0712 -0.0749 3.1483
    CHANNELS 3 Zrotation Xrotation Yrotation
    JOINT RightKnee
    {
      OFFSET 0.3157 -48.5179 0.1055
      CHANNELS 3 Zrotation Xrotation Yrotation
      JOINT RightAnkle
      {
        OFFSET -1.1248 -38.4399 -3.4305
        CHANNELS 3 Zrotation Xrotation Yrotation
        End Site
        {
            OFFSET -1.3336 -7.3741 17.3830
        }
      }
    }
  }
}
MOTION
Frames:	14
Frame Time:	0.016667
35.2693 96.7215 589.9396 -15.40 2.59 -87.00 2.33 17.68 1.00 2.35 17.66 1.02 -0.18 -0.70 0.26 17.07 -11.91 -53.75 9.37 -20.21 -2.18 -8.26 -1.56 -7.30 -0.01 -0.80 0.01 -22.74 -19.45 73.30 -13.81 -16.14 3.33 1.89 -2.05 -6.22 -0.12 -13.68 1.79 -0.14 -6.37 1.79 3.00 16.34 -8.78 2.37 3.25 0.04 -3.11 -4.44 2.36 3.08 18.36 7.33 0.12 0.65 -0.01 0.07 1.32 -3.53 
35.2744 96.7211 589.9977 -15.48 2.65 -87.02 2.36 17.76 0.97 2.38 17.73 1.00 -0.18 -0.70 0.26 17.08 -11.84 -53.69 9.37 -20.41 -2.19 -8.02 -1.50 -7.22 -0.01 -0.80 0.01 -22.77 -19.62 73.62 -13.81 -16.20 3.33 1.61 -2.19 -5.83 -0.10 -13.84 1.70 -0.12 -6.53 1.71 3.04 16.39 -8.76 2.32 3.32 0.03 -3.03 -4.48 2.39 3.11 18.38 7.26 0.12 0.77 -0.01 0.00 1.34 -3.36 
35.2826 96.7214 590.0692 -15.56 2.73 -87.05 2.40 17.83 0.95 2.42 17.81 0.97 -0.18 -0.70 0.26 17.11 -11.77 -53.64 9.36 -20.64 -2.20 -7.77 -1.40 -7.12 -0.01 -0.80 0.01 -22.79 -19.80 73.95 -13.80 -16.28 3.33 1.30 -2.38 -5.36 -0.09 -14.04 1.61 -0.09 -6.72 1.61 3.08 16.43 -8.72 2.26 3.41 0.02 -2.96 -4.53 2.41 3.12 18.38 7.20 0.12 0.91 -0.01 0.07 1.34 -3.17 
35.2934 96.7233 590.1250 -15.58 2.79 -87.11 2.40 17.85 0.94 2.42 17.82 0.96 -0.18 -0.70 0.26 17.17 -11.72 -53.68 9.36 -20.76 -2.20 -7.71 -1.29 -6.97 -0.01 -0.80 0.01 -22.74 -19.89 74.06 -13.80 -16.37 3.33 1.11 -2.55 -5.00 -0.08 -14.18 1.55 -0.07 -6.87 1.56 3.10 16.42 -8.64 2.25 3.46 0.01 -2.93 -4.55 2.41 3.06 18.34 7.21 0.13 0.98 -0.01 0.58 1.27 -3.05 
35.3071 96.7262 590.1765 -15.56 2.85 -87.19 2.40 17.83 0.94 2.42 17.81 0.96 -0.18 -0.70 0.26 17.23 -11.69 -53.76 9.36 -20.82 -2.20 -7.74 -1.17 -6.87 -0.01 -0.80 0.01 -22.66 -19.94 74.07 -13.80 -16.46 3.33 0.97 -2.71 -4.74 -0.07 -14.31 1.52 -0.06 -6.99 1.52 3.09 16.39 -8.54 2.25 3.50 0.01 -2.92 -4.56 2.41 2.98 18.27 7.24 0.14 1.04 0.00 1.22 1.17 -2.94 
35.3235 96.7300 590.2246 -15.51 2.90 -87.29 2.39 17.81 0.94 2.42 17.79 0.96 -0.18 -0.70 0.26 17.30 -11.67 -53.84 9.36 -20.84 -2.20 -7.82 -1.06 -6.88 -0.01 -0.80 0.01 -22.55 -19.95 74.02 -13.79 -16.56 3.33 0.85 -2.85 -4.60 -0.06 -14.42 1.51 -0.06 -7.11 1.52 3.07 16.31 -8.41 2.25 3.56 0.01 -2.91 -4.59 2.41 2.89 18.16 7.31 0.15 1.10 0.01 1.77 1.09 -2.85 
35.3423 96.7346 590.2705 -15.43 2.94 -87.42 2.39 17.78 0.95 2.41 17.76 0.97 -0.18 -0.70 0.26 17.36 -11.65 -53.92 9.36 -20.82 -2.20 -7.95 -0.96 -7.00 -0.01 -0.80 0.01 -22.43 -19.94 73.91 -13.79 -16.65 3.33 0.76 -2.96 -4.60 -0.06 -14.53 1.53 -0.06 -7.21 1.53 3.04 16.22 -8.25 2.26 3.60 0.01 -2.89 -4.62 2.40 2.80 18.03 7.38 0.16 1.15 0.02 2.23 1.02 -2.75 
35.3635 96.7397 590.3154 -15.33 2.98 -87.57 2.38 17.74 0.95 2.40 17.72 0.97 -0.18 -0.70 0.26 17.41 -11.64 -53.96 9.36 -20.76 -2.20 -8.10 -0.88 -7.30 -0.01 -0.80 0.01 -22.30 -19.93 73.76 -13.79 -16.73 3.33 0.67 -3.04 -4.79 -0.07 -14.65 1.58 -0.07 -7.33 1.58 3.00 16.14 -8.07 2.26 3.60 0.01 -2.86 -4.63 2.40 2.72 17.88 7.46 0.16 1.20 0.03 2.48 0.98 -2.65 
35.3865 96.7454 590.3600 -15.22 3.02 -87.74 2.37 17.71 0.95 2.39 17.69 0.97 -0.18 -0.70 0.26 17.44 -11.63 -53.99 9.36 -20.68 -2.20 -8.25 -0.81 -7.71 -0.01 -0.80 0.01 -22.16 -19.91 73.58 -13.78 -16.80 3.33 0.59 -3.08 -5.14 -0.09 -14.77 1.64 -0.10 -7.45 1.64 2.95 16.05 -7.86 2.27 3.58 0.01 -2.82 -4.61 2.39 2.65 17.72 7.55 0.17 1.26 0.03 2.60 0.96 -2.54 
35.4109 96.7514 590.4051 -15.07 3.06 -87.95 2.37 17.68 0.95 2.39 17.65 0.97 -0.18 -0.70 0.26 17.46 -11.62 -54.01 9.36 -20.62 -2.19 -8.38 -0.75 -8.23 -0.01 -0.80 0.01 -22.01 -19.88 73.39 -13.78 -16.85 3.33 0.51 -3.10 -5.64 -0.11 -14.89 1.72 -0.13 -7.58 1.72 2.90 15.95 -7.65 2.28 3.54 0.00 -2.76 -4.56 2.40 2.60 17.53 7.64 0.17 1.31 0.04 2.63 0.95 -2.43 
35.4366 96.7578 590.4512 -14.93 3.10 -88.17 2.37 17.64 0.94 2.39 17.62 0.96 -0.18 -0.70 0.26 17.48 -11.62 -54.02 9.36 -20.57 -2.19 -8.50 -0.70 -8.76 -0.01 -0.80 0.01 -21.87 -19.85 73.14 -13.78 -16.85 3.33 0.44 -3.11 -6.25 -0.14 -15.03 1.82 -0.17 -7.71 1.82 2.85 15.86 -7.42 2.29 3.46 -0.01 -2.68 -4.48 2.41 2.54 17.33 7.73 0.17 1.36 0.04 2.60 0.94 -2.31 
35.4632 96.7646 590.4988 -14.80 3.14 -88.40 2.36 17.62 0.93 2.39 17.59 0.95 -0.18 -0.70 0.26 17.49 -11.62 -54.01 9.36 -20.52 -2.19 -8.58 -0.64 -9.21 -0.01 -0.80 0.01 -21.72 -19.81 72.83 -13.78 -16.82 3.33 0.40 -3.10 -6.92 -0.17 -15.18 1.94 -0.22 -7.86 1.93 2.80 15.79 -7.19 2.29 3.33 -0.02 -2.58 -4.36 2.42 2.48 17.15 7.83 0.17 1.41 0.05 2.57 0.93 -2.18 
35.4905 96.7715 590.5477 -14.66 3.18 -88.63 2.37 17.59 0.92 2.39 17.57 0.94 -0.18 -0.70 0.26 17.50 -11.62 -54.01 9.36 -20.50 -2.19 -8.64 -0.58 -9.53 -0.01 -0.80 0.01 -21.57 -19.76 72.44 -13.78 -16.75 3.33 0.38 -3.10 -7.58 -0.22 -15.33 2.07 -0.28 -8.02 2.06 2.75 15.73 -6.95 2.28 3.18 -0.04 -2.48 -4.23 2.44 2.43 16.97 7.92 0.17 1.46 0.05 2.55 0.92 -2.05 
35.5184 96.7786 590.5979 -14.53 3.22 -88.87 2.37 17.57 0.90 2.39 17.54 0.92 -0.18 -0.70 0.26 17.51 -11.62 -54.05 9.36 -20.53 -2.19 -8.67 -0.51 -9.61 -0.01 -0.80 0.01 -21.42 -19.69 71.97 -13.79 -16.66 3.33 0.39 -3.11 -8.18 -0.26 -15.47 2.19 -0.34 -8.16 2.17 2.70 15.67 -6.71 2.29 3.06 -0.04 -2.41 -4.13 2.46 2.36 16.78 8.02 0.17 1.50 0.05 2.56 0.91 -1.92 
